<?xml version="1.0" encoding="UTF-8" standalone="no"?>
<svg class="svr-stamp" xmlns:rdf="http://www.w3.org/1999/02/22-rdf-syntax-ns#" xmlns="http://www.w3.org/2000/svg" height="286.65mm" width="250mm" version="1.1" xmlns:cc="http://creativecommons.org/ns#" xmlns:dc="http://purl.org/dc/elements/1.1/" viewBox="0 0 885.82623 1015.6988">
 <defs>
  <clipPath id="a" clipPathUnits="userSpaceOnUse">
   <path d="m0 1212.3h1567.5v-1212.3h-1567.5v1212.3z"/>
  </clipPath>
 </defs>
 <g transform="translate(64.699 14.416)">
  <g opacity=".6" fill="none" transform="translate(-297.86 400.2)">
   <g transform="matrix(1.25 0 0 -1.25 -303.62 850.95)">
    <g clip-path="url(#a)">
     <g transform="translate(834.64 643.03)">
      <path d="m0 0c-8.496-12.827-22.006-25.5-49.243-28.792-23.274-2.838-39.555 2.48-49.101 7.707-9.529 5.272-19.119 15.816-19.119 15.816s14.528-40.75 58.257-44.901l-0.339-31.501 15.19 8.736 0.391 22.765c5.428 0.484 11.226 1.475 17.395 3.183 54.923 14.621 38.172 81.491 38.172 81.491-0.003 0-0.927-18.314-11.606-34.504m-113.95-22.84c-4.969 8.157-7.852 16.06-7.852 16.06s-4.826 2.23-9.574 6.362c-9.35 8.004-15.774 20.824-15.774 20.824s-3.805-27.467 10.105-41.147c19.693-19.4 37.302-16.561 37.302-16.561s-8.564 5.28-14.207 14.462m30.319 74.14s-9.772-19.276 6.789-29.186c16.558-9.867 31.353-9.136 42.34-4.325 9.308 4.141 17.927 15.075 19.089 23.042 1.092 7.891-3.273 12.985-3.273 12.985s-10.626-19.455-32.153-19.569c-28.287-0.096-32.792 17.053-32.792 17.053m-35.232-52.342s-17.437 24.097-4.28 55.278c8.636 20.436 24.774 30.118 24.774 30.118s-44.302 5.86-51.522-31.654c-5.822-29.886 31.028-53.742 31.028-53.742m110.76 58.288c2.11-16.136-5.112-31.843-5.112-31.843s27.353 7.559 25.379 33.662c-1.932 26.342-34.656 24.103-34.656 24.103s12.625-12.457 14.389-25.922m25.921-64.816s-0.881-7.784-5.99-15.942c-3.18-5-9.307-12.55-9.307-12.55s8.73 0.792 18.948 9.863c11.029 9.798 7.771 25.233 7.771 25.233-5.543-3.995-11.422-6.604-11.422-6.604m-113.53 42.296s0.14 4.619 3.038 13.937c3.636 11.623 14.92 21.628 32.794 24.274 25.219 3.834 40.587-10.82 40.587-10.82s-1.774 18.635-17.299 28.049c-14.498 8.832-32.092 8.046-46.302-0.512-28.718-17.46-12.818-54.928-12.818-54.928m114.49 15.41c-0.615-9.616-2.67-12.39-2.67-12.39s3.051-6.464 3.107-17.031c0-12.15-1.232-21.301-1.232-21.301s23.725 8.871 24.845 37.357c1.106 29.405-27.493 31.914-27.574 32.064 0 0 4.199-9.098 3.524-18.699m-58.909 99.956h-0.028c-1.694-2.497-4.831-4.096-5.28-3.984-0.43 0.087-0.867 2.466 0.857 4.986 1.652 2.441 4.784 4 5.274 3.953 0.465-0.028 0.717-2.833-0.823-4.955m19.523-20.273c-0.056-0.476-2.576-2.981-5.428-3.836-2.886-0.825-5.014 0.315-4.958 0.838 0.112 0.42 2.564 2.919 5.392 3.779 2.939 0.871 5.05-0.361 4.994-0.781m-19.355-434.24h-2.62v12.189c10.108 4.033 20.606 7.547 28.945 11.452 35.104 16.342 42.959 43.89 32.881 61.766-10.304 18.168-38.395 23.498-62.005 30.472l-0.168 64.709c33.97 19.551 68.735 38.424 96.116 62.792 35.4 31.361 52.557 70.798 54.155 109.71 2.741 66.963-29.861 109.71-69.863 123.07-27.027 9.118-36.279 5.622-47.376 3.912-11.799-1.84-19.388-2.736-29.953-10.35-11.533-8.267-12.166-19.405-23.207-33.396-2.507-3.171-1.161-4.065 1.232-8.714-2.06-1.288-4.366-2.379-6.214-3.079-8.678-3.343-17.149-1.761-17.149-1.761s5.515-2.206 9.772-1.862c5.513 0.524 6.761 1.106 7.881 1.554-1.022-0.787-3.768-3.92-4.941-8.398-1.078-4.118-0.938-7.785-0.938-7.785s1.372 8.35 7.53 15.264c1.26 1.42 2.911 2.626 5.246 3.886 4.524-6.494 5.123-5.039 7.799-4.241 13.14 3.575 24.466 1.607 36.137 7.513 12.023 5.966 14.741 11.844 17.961 18.008 6.939 13.373 32.178 5.74 48.103-11.317 46.111-49.428 22.521-145.52-57.915-187.28-50.766-26.375-78.259-43.086-97.641-70.002-23.542-32.584-7.418-72.424 43.25-85.593 1.453-0.392 2.432-0.672 3.832-1.019l-0.095 29.967c-11.788 5.039-19.945 10.344-21.541 22.232-1.15 8.981 7.95 16.175 23.722 27.457l0.338-135.63 14.106 5.423-0.123 46.644c22.322-5.503 38.518-10.536 37.368-22.775-1.707-17.381-34.88-23.638-70.193-41.058-12.755-6.306-20.613-13.104-25.079-19.903-154.63 24.373-273.24 157.92-273.24 318.56 0 177.9 145.41 322.58 324.19 322.58 178.67 0 324.13-144.68 324.13-322.58 0-174.62-140.18-317.2-314.42-322.41m-16.726 0h-2.337c-2.358 0.067-4.706 0.17-7.051 0.287 2.784 2.016 5.966 3.884 9.388 5.667v-5.954zm7.024 651.82c-182.54 0-331.07-147.72-331.07-329.4 0-181.65 148.53-329.52 331.07-329.52 182.4 0 330.93 147.87 330.93 329.52 0 181.68-148.53 329.4-330.93 329.4m-106.27-756.14c-2.243-2.362-6.537-3.547-12.908-3.547h-13.199v26.907h11.592c6.173 0 10.704-0.979 13.644-2.846 2.914-1.959 4.314-5.193 4.314-9.876 0-4.666-1.109-8.222-3.443-10.638m8.118 27.82c-4.703 3.864-12.208 5.823-22.426 5.823h-23.251v-67.184h11.452v19.721h11.967c9.91 0 17.303 1.819 22.101 5.613 4.759 3.835 7.197 9.735 7.197 17.888 0 8.224-2.354 14.175-7.04 18.139m46.09 408.5c-10.864 11.573-9.055 34.012-9.055 34.012s-26.776-38.029 3.65-66.621c22.983-21.684 69.032-23.588 91.303-0.588 18.98 19.575 16.321 32.231 16.321 32.231s-18.644-19.889-49.353-19.498c-30.809 0.404-44.733 11.856-52.866 20.464m50.862-349.64c-187.79 0-340.46 151.98-340.46 338.86 0 186.81 152.67 338.84 340.46 338.84 187.74 0 340.43-152.03 340.43-338.84 0-186.88-152.7-338.86-340.43-338.86m0 691.49c-195.4 0-354.36-158.15-354.36-352.63s158.95-352.7 354.36-352.7c195.38 0 354.3 158.22 354.3 352.7s-158.92 352.63-354.3 352.63m76.506-811.72h11.394v67.184h-11.394v-67.184zm76.54 32.298c-3.573 2.959-8.768 5.352-15.626 7.032-6.957 1.63-11.528 3.192-13.577 4.675-2.164 1.4-3.256 3.443-3.256 6.215 0 2.743 1.092 4.736 3.256 6.136 2.049 1.338 4.787 2.021 8.107 2.021 3.37 0 6.73-0.599 10.077-1.741 3.46-1.182 6.134-2.637 8.157-4.456l6.103 8.593c-3.135 2.567-6.841 4.543-11.013 5.977-4.252 1.399-8.565 2.1-12.865 2.1-6.747 0-12.373-1.714-16.908-5.026-4.535-3.395-6.859-8.168-6.859-14.416 0-6.22 2.061-10.861 6.038-13.871 2.024-1.576 4.339-2.883 6.923-3.877 2.576-1.008 6.316-2.099 11.287-3.275 4.966-1.218 8.42-2.505 10.484-3.891 2.024-1.54 3.02-3.5 3.02-6.144 0-2.632-1.094-4.661-3.236-6.206-2.11-1.619-5.075-2.361-8.79-2.361-7.306 0-14.416 2.94-21.199 8.832l-7.141-8.538c8.157-7.292 17.471-10.917 28.122-10.917 7.217 0 13.068 1.805 17.496 5.565 4.445 3.575 6.671 8.347 6.671 14.213 0 5.892-1.786 10.342-5.271 13.36m-154.75 453.07c13.619 0.297 16.785 4.132 18.675 7.184 2.88 4.72-1.375 8.538-1.375 8.538s-6.481 5.878-18.92 5.839c-11.198-0.072-20.942-5.447-20.562-10.206 0.515-6.831 8.594-11.635 22.182-11.355m28.542-452.52h-14.181v24.059h14.557c6.074 0 10.332-0.789 12.726-2.415 2.351-1.676 3.593-4.686 3.593-9.081 0-4.367-1.214-7.558-3.526-9.56-2.352-1.946-6.691-3.003-13.169-3.003m28.414 12.493c0 7.679-2.228 13.261-6.719 16.642-4.425 3.513-11.872 5.207-22.142 5.207h-25.111v-67.184h11.377v22.576h15.004l16.139-22.576h14.503l-17.678 24.443c9.739 2.836 14.627 9.834 14.627 20.892m-116.33-19.609 12.233 27.741 12.334-27.741h-24.567zm6.159 41.458-29.771-67.184h12.163l6.761 15.228h33.888l6.674-15.228h12.25l-29.771 67.184h-12.194zm339.73 481.25-4.679 10.799-51.266-1.178 36.111 36.251-4.678 10.814-48.568-48.046 4.692-10.777 68.388 2.137zm-110.92 126.09c-2.412-3.328-5.052-5.176-7.884-5.4-2.829-0.227-6.672 1.371-11.478 4.876l-10.619 7.699 13.362 18.28 10.906-7.895c4.506-3.253 7.252-6.192 8.129-8.706 0.868-2.584 0.09-5.55-2.416-8.854m8.79-6.407c4.228 5.85 5.626 11.25 4.253 16.286-1.373 5.039-5.931 10.357-13.636 15.984l-18.769 13.605-37.512-51.141 8.538-6.15 12.583 17.154 11.173-8.09-0.521-25.922 10.878-7.944 0.404 28.209c8.845-3.049 16.376-0.418 22.609 8.009m44.871-388.24-42.104 33.251-6.594-8.238 42.192-33.242-11.846-14.812 7.67-6.044 30.182 37.805-7.69 6.047-11.81-14.767zm7.138 185.63 10.026 1.399-4.649 33.915 16.861 2.321 4.032-29.533 9.48 1.237-4.006 29.572 16.618 2.228 4.529-32.853 9.961 1.33-5.879 43.291-63.02-8.52 6.047-44.387zm-259.07 257.28c-3.678 2.318-8.79 3.639-15.383 4.11-6.564 0.498-10.959 1.198-13.07 2.239-2.2 1.047-3.488 2.799-3.933 5.33-0.406 2.536 0.221 4.535 1.932 6.133 1.707 1.604 4.045 2.584 7.124 3.133 3.034 0.549 6.142 0.549 9.487-0.039 3.317-0.549 5.965-1.49 8.076-2.889l4.174 8.946c-3.194 1.96-6.873 3.147-10.991 3.819-4.084 0.7-8.103 0.7-12.022-0.039-6.075-1.008-10.957-3.433-14.557-7.307-3.625-3.779-4.938-8.6-3.905-14.377 0.937-5.778 3.502-9.759 7.617-11.908 2.11-1.21 4.367-2.033 6.886-2.548 2.477-0.543 6.103-0.991 10.789-1.321 4.731-0.303 8.132-0.98 10.246-2.083 2.032-0.96 3.277-2.715 3.739-5.145 0.378-2.38-0.255-4.493-1.976-6.299-1.679-1.741-4.252-2.972-7.583-3.533-6.778-1.058-13.622 0.504-20.813 4.961l-5.123-9.075c8.605-5.459 17.678-7.38 27.335-5.739 6.565 1.097 11.575 3.714 15.044 7.774 3.474 4.123 4.759 8.898 3.852 14.302-0.912 5.475-3.264 9.333-6.945 11.555m113.96 9.098c2.312 0.549 4.915 0.33 7.771-0.778 2.827-1.005 5.682-2.62 8.241-4.681 2.575-2.11 4.457-4.261 5.599-6.449l8.082 5.66c-1.907 3.205-4.452 6.097-7.618 8.756-3.32 2.609-6.802 4.526-10.567 5.889-5.853 2.089-11.256 2.397-16.236 0.791-5.084-1.49-8.538-5.068-10.624-10.587-1.948-5.471-1.724-10.157 0.739-14.087 1.26-2.088 2.828-3.969 4.731-5.599 1.917-1.769 4.829-3.907 8.779-6.528 3.902-2.57 6.534-4.843 7.821-6.741 1.277-1.898 1.54-4.008 0.7-6.298-0.854-2.301-2.419-3.822-4.843-4.535-2.379-0.706-5.108-0.47-8.37 0.638-6.368 2.335-11.589 7.139-15.62 14.534l-8.986-5.336c4.801-8.968 11.729-15.122 20.956-18.458 6.282-2.267 11.936-2.486 16.989-0.638 5.053 1.839 8.496 5.341 10.391 10.548 1.912 5.229 1.8 9.685-0.279 13.436-2.089 3.791-5.868 7.469-11.341 11.226-5.542 3.55-8.902 6.348-10.301 8.308-1.4 1.988-1.641 4.149-0.742 6.568 0.853 2.419 2.474 3.851 4.728 4.361m195.11-315.51c-0.799-5.562-2.049-9.342-3.877-11.254-1.861-1.996-4.84-2.639-8.959-2.099-4.129 0.484-6.928 2.024-8.566 4.403-1.512 2.38-1.922 6.453-1.161 12.346l1.875 12.98 22.522-3.079-1.834-13.297zm-50.067 31.008-1.46-10.425 21.181-2.925-1.908-13.626-23.234-11.833-1.832-13.171 25.177 12.919c1.428-9.266 7.418-14.574 17.754-15.974 7.188-1.019 12.619 0.336 16.444 3.908 3.837 3.603 6.421 10.106 7.703 19.484l3.172 22.937-62.997 8.706zm-422.38 150.05-8.764 5.038-17.197-29.645-14.741 8.477 15.001 25.835-8.294 4.711-14.965-25.787-14.585 8.367 16.634 28.758-8.728 5.002-21.967-37.839 55.088-31.612 22.518 38.695zm-53.05-158.52c6.248 6.094 9.517 13.77 9.658 23.232 0.103 9.42-3.483 17.425-10.851 24.144l-7.189-6.648c2.733-2.884 4.642-5.615 5.812-8.231 1.209-2.659 1.806-5.783 1.783-9.405-0.126-5.781-2.357-10.794-6.771-14.96-4.426-4.199-9.863-6.257-16.301-6.144-6.461 0.112-11.766 2.306-15.816 6.687-4.06 4.339-6.108 9.647-5.977 15.956 0.037 3.527 0.686 6.621 1.917 9.227 1.171 2.629 3.22 5.47 6.187 8.368l-7.329 6.788c-7.367-6.41-11.161-14.347-11.351-24.005-0.179-9.654 2.914-17.678 9.126-24.065 6.218-6.487 14.016-9.747 23.475-9.863 9.476-0.187 17.356 2.817 23.627 8.919m-21.401-84.297c-5.574 2.7-9.289 6.991-11.136 12.805-1.881 5.951-1.304 11.566 1.657 16.967 2.914 5.377 7.505 9.036 13.591 11.01 6.105 1.925 11.92 1.489 17.496-1.199 5.598-2.631 9.338-6.928 11.205-12.779 1.901-5.906 1.325-11.575-1.679-16.938-2.962-5.37-7.494-9.09-13.613-10.957-6.108-1.92-11.922-1.577-17.521 1.091m40.335 4.67c4.02 7.919 4.597 16.261 1.82 25.054-2.822 8.86-8.157 15.27-16.096 19.368-7.85 4.132-16.312 4.732-25.233 1.907-8.931-2.786-15.411-8.177-19.442-16.077-4.123-7.891-4.683-16.166-1.92-25.056 2.799-8.819 8.207-15.229 16.057-19.367 7.964-4.058 16.311-4.724 25.255-1.909 8.958 2.845 15.439 8.231 19.559 16.08m-54.699 170.76 51.85-14.223 2.799 10.128-51.83 14.224 4.98 18.195-9.392 2.572-12.941-46.536 9.532-2.547 5.002 18.187zm480.13-191.62 9.229-3.973 13.843 31.255 15.586-6.766-12.047-27.294 8.731-3.843 12.056 27.265 15.411-6.717-13.401-30.387 9.16-4.069 17.713 40.006-58.234 25.454-18.047-40.931zm-328.92 353.38-9.966 20.384 12.079 5.908c5.078 2.458 8.944 3.437 11.656 2.989 2.578-0.372 4.899-2.472 6.679-6.158 1.848-3.751 2.167-6.887 1.064-9.49-1.064-2.615-4.356-5.246-9.688-7.855l-11.824-5.778zm39.565-15.226 12.04 5.804-24.847 13.571c6.875 6.349 8.048 14.287 3.432 23.654-3.152 6.45-7.295 10.268-12.46 11.337-5.108 1.21-11.967-0.313-20.516-4.478l-20.931-10.167 27.94-56.878 9.493 4.592-9.437 19.09 12.474 6.081 22.812-12.606zm-134.13-404.64-6.26 8.485c-9.685 13.157-8.616 23.988 3.141 32.543 5.728 4.241 11.276 5.774 16.601 4.73 5.385-1.063 10.284-4.661 14.696-10.749l6.953-9.378-35.131-25.631zm14.506 56.172c-8.163 1.344-16.197-0.919-24.164-6.747-7.967-5.813-12.418-12.806-13.325-20.854-0.927-8.147 1.873-16.648 8.488-25.643l12.737-17.216 51.331 37.371-12.331 16.643c-7.049 9.699-14.669 15.158-22.736 16.446m22.736 365.37-7.664-7.221 24.281-25.436c3.992-4.176 6.147-8.514 6.388-12.932 0.347-4.423-1.36-8.239-4.848-11.646-3.55-3.358-7.559-4.767-11.937-4.255-4.386 0.524-8.61 2.856-12.644 7.027l-24.268 25.44-7.645-7.273 24.581-25.706c6.338-6.598 12.95-10.042 19.948-10.217 6.993-0.165 13.297 2.359 18.896 7.678 5.641 5.319 8.518 11.444 8.72 18.442 0.165 6.999-2.889 13.751-9.224 20.323l-24.584 25.776z" fill="#2b2b2a"/>
     </g>
    </g>
   </g>
  </g>
 </g>
</svg>
